<?xml version="1.0" encoding="UTF-8"?>
<svg version="1.1" xmlns="http://www.w3.org/2000/svg" width="960" height="1118">
<path d="M0 0 C22.62408713 8.00132986 45.38134053 15.52776912 69.25854492 18.63354492 C70.21889648 18.76374023 71.17924805 18.89393555 72.16870117 19.02807617 C110.6028268 23.37582794 146.48000746 10.34176587 181.88354492 -2.92895508 C254.45271686 -30.11528151 328.92619409 -38.35418603 401.50854492 -5.99145508 C447.07478292 14.92626089 487.18071435 46.24138566 518.25854492 85.63354492 C515.0698776 89.1712206 511.48019002 91.42722352 507.38354492 93.75854492 C490.39540266 103.70363457 475.51282413 116.11915461 461.25854492 129.63354492 C460.38069336 130.45725586 459.5028418 131.2809668 458.59838867 132.12963867 C452.29648614 138.21182352 446.91667133 144.81366328 441.65405273 151.78930664 C440.27305581 153.61436801 438.87229489 155.42288054 437.46948242 157.23120117 C430.8744666 165.84689648 425.44053244 174.85837296 420.40209961 184.46069336 C419.34483291 186.46959037 418.26175094 188.46213182 417.17260742 190.45385742 C387.51680157 245.83990245 385.80284591 313.2018147 402.94604492 372.57104492 C414.90515153 411.96691183 436.87801389 446.16424671 465.25854492 475.63354492 C466.01135742 476.42760742 466.76416992 477.22166992 467.53979492 478.03979492 C488.94904135 500.15098385 518.20766824 517.66710874 546.90698242 528.35229492 C549.25854492 529.63354492 549.25854492 529.63354492 550.07373047 531.30175781 C550.35042772 534.7928218 549.03021821 537.06106747 547.56713867 540.22338867 C547.27092621 540.87140442 546.97471375 541.51942017 546.66952515 542.18707275 C545.69013088 544.3207181 544.69368126 546.44587491 543.69604492 548.57104492 C543.00682539 550.05877572 542.31827537 551.54681684 541.63037109 553.03515625 C539.86455805 556.84430788 538.08189911 560.64527644 536.29138184 564.44287109 C535.31311701 566.51779612 534.33779914 568.59408202 533.36303711 570.6706543 C518.52992773 602.21222057 501.58023709 632.61160145 482.25854492 661.63354492 C481.12561165 663.3457046 479.99280631 665.05794893 478.86010742 666.77026367 C464.39646911 688.58909733 449.69322551 710.23699002 433.25854492 730.63354492 C432.13899414 732.02766602 432.13899414 732.02766602 430.99682617 733.44995117 C416.36176874 751.50073117 401.08337961 769.63326096 383.25854492 784.63354492 C382.70521484 785.10066895 382.15188477 785.56779297 381.58178711 786.04907227 C360.20429591 804.01311508 337.3738613 818.12183142 310.25854492 825.63354492 C309.59677246 825.82416504 308.935 826.01478516 308.25317383 826.21118164 C271.57983904 836.36434295 234.90853472 823.67695419 201.83276367 808.73510742 C174.90702208 796.58467608 147.94892035 786.31368432 118.25854492 783.63354492 C117.12803711 783.52397461 115.9975293 783.4144043 114.83276367 783.30151367 C65.58694358 779.26497104 21.83629823 790.3096433 -23.04223633 809.79760742 C-49.68253712 821.36212651 -49.68253712 821.36212651 -61.74145508 824.63354492 C-62.4762207 824.83947266 -63.21098633 825.04540039 -63.96801758 825.25756836 C-86.59431253 831.32640086 -114.33408825 831.48969972 -136.74145508 824.63354492 C-137.99442383 824.28291992 -139.24739258 823.93229492 -140.53833008 823.57104492 C-162.94506473 816.76393566 -182.70417216 804.32583326 -200.74145508 789.63354492 C-201.26707031 789.21089355 -201.79268555 788.78824219 -202.33422852 788.3527832 C-216.7176547 776.71670427 -230.60217897 763.53660086 -241.96020508 748.91088867 C-243.71184589 746.67140053 -245.56426158 744.59765427 -247.49145508 742.50854492 C-258.60101021 730.12304089 -268.12825474 716.1878911 -277.74145508 702.63354492 C-278.36955078 701.74892578 -278.99764648 700.86430664 -279.64477539 699.95288086 C-333.62426198 623.71051771 -373.80659523 537.82980857 -406.74145508 378.63354492 C-406.88953613 377.49304688 -407.03761719 376.35254883 -407.19018555 375.17749023 C-409.75391276 355.01539013 -410.0577149 334.84094366 -410.1098175 314.54325867 C-410.11631614 312.489944 -410.12775552 310.43670878 -410.14025879 308.38342285 C-410.39852314 251.68486375 -401.32886465 192.76580704 -375.74145508 141.63354492 C-375.32428223 140.784375 -374.90710938 139.93520508 -374.47729492 139.06030273 C-355.37260988 100.36959935 -325.8638559 63.20465372 -291.74145508 36.63354492 C-290.57902931 35.68449501 -289.41902416 34.73247533 -288.26098633 33.77807617 C-274.62999003 22.59210965 -260.06704414 13.32023164 -244.74145508 4.63354492 C-244.11271484 4.27518555 -243.48397461 3.91682617 -242.83618164 3.54760742 C-218.71743072 -10.09532239 -191.94321691 -19.30474967 -164.74145508 -24.36645508 C-163.87359375 -24.53016602 -163.00573242 -24.69387695 -162.11157227 -24.86254883 C-106.00334586 -34.95410646 -52.43152924 -18.58363512 0 0 Z " fill="#CF0F2B" transform="translate(409.741455078125,288.366455078125)"/>
<path d="M0 0 C22.62408713 8.00132986 45.38134053 15.52776912 69.25854492 18.63354492 C70.21889648 18.76374023 71.17924805 18.89393555 72.16870117 19.02807617 C110.6028268 23.37582794 146.48000746 10.34176587 181.88354492 -2.92895508 C254.45271686 -30.11528151 328.92619409 -38.35418603 401.50854492 -5.99145508 C447.07478292 14.92626089 487.18071435 46.24138566 518.25854492 85.63354492 C515.0698776 89.1712206 511.48019002 91.42722352 507.38354492 93.75854492 C490.39540266 103.70363457 475.51282413 116.11915461 461.25854492 129.63354492 C460.38069336 130.45725586 459.5028418 131.2809668 458.59838867 132.12963867 C452.29648614 138.21182352 446.91667133 144.81366328 441.65405273 151.78930664 C440.27305581 153.61436801 438.87229489 155.42288054 437.46948242 157.23120117 C430.8744666 165.84689648 425.44053244 174.85837296 420.40209961 184.46069336 C419.34483291 186.46959037 418.26175094 188.46213182 417.17260742 190.45385742 C407.35338427 208.792524 401.47469098 228.8304436 396.89355469 249.0324707 C396.10646473 252.25648317 395.17026182 255.44253579 394.25854492 258.63354492 C129.92854492 258.63354492 -134.40145508 258.63354492 -406.74145508 258.63354492 C-406.74145508 252.96549087 -406.74005104 248.47723796 -405.85864258 243.07104492 C-405.56739502 241.27799927 -405.56739502 241.27799927 -405.27026367 239.44873047 C-405.05450684 238.18971924 -404.83875 236.93070801 -404.61645508 235.63354492 C-404.50408508 234.97504547 -404.39171509 234.31654602 -404.27593994 233.63809204 C-398.83823782 201.97912166 -390.16513889 170.45692305 -375.74145508 141.63354492 C-375.32428223 140.784375 -374.90710938 139.93520508 -374.47729492 139.06030273 C-355.37260988 100.36959935 -325.8638559 63.20465372 -291.74145508 36.63354492 C-290.57902931 35.68449501 -289.41902416 34.73247533 -288.26098633 33.77807617 C-274.62999003 22.59210965 -260.06704414 13.32023164 -244.74145508 4.63354492 C-244.11271484 4.27518555 -243.48397461 3.91682617 -242.83618164 3.54760742 C-218.71743072 -10.09532239 -191.94321691 -19.30474967 -164.74145508 -24.36645508 C-163.87359375 -24.53016602 -163.00573242 -24.69387695 -162.11157227 -24.86254883 C-106.00334586 -34.95410646 -52.43152924 -18.58363512 0 0 Z " fill="#FEC627" transform="translate(409.741455078125,288.366455078125)"/>
<path d="M0 0 C299.97 0 599.94 0 909 0 C900.93382306 19.58928685 900.93382306 19.58928685 898.01953125 25.54296875 C897.51753708 26.58249443 897.51753708 26.58249443 897.00540161 27.64302063 C895.94737994 29.82763804 894.88099897 32.00799005 893.8125 34.1875 C893.44150177 34.94724121 893.07050354 35.70698242 892.68826294 36.48974609 C878.92190418 64.65200587 863.37555578 91.90123012 846 118 C844.86706673 119.71215968 843.73426139 121.42440401 842.6015625 123.13671875 C828.13792419 144.95555241 813.43468058 166.6034451 797 187 C795.88044922 188.39412109 795.88044922 188.39412109 794.73828125 189.81640625 C780.10322382 207.86718625 764.82483469 225.99971604 747 241 C746.17000488 241.70068604 746.17000488 241.70068604 745.32324219 242.41552734 C723.94575098 260.37957016 701.11531638 274.4882865 674 282 C673.00734131 282.28593018 673.00734131 282.28593018 671.99462891 282.57763672 C635.32129412 292.73079803 598.6499898 280.04340927 565.57421875 265.1015625 C538.64847716 252.95113116 511.69037543 242.6801394 482 240 C480.86949219 239.89042969 479.73898437 239.78085938 478.57421875 239.66796875 C429.32839865 235.63142612 385.57775331 246.67609838 340.69921875 266.1640625 C314.05891796 277.72858159 314.05891796 277.72858159 302 281 C301.26523437 281.20592773 300.53046875 281.41185547 299.7734375 281.62402344 C277.14714255 287.69285594 249.40736683 287.8561548 227 281 C225.74703125 280.649375 224.4940625 280.29875 223.203125 279.9375 C200.79639034 273.13039074 181.03728291 260.69228834 163 246 C162.47438477 245.57734863 161.94876953 245.15469727 161.40722656 244.71923828 C147.02380038 233.08315934 133.1392761 219.90305594 121.78125 205.27734375 C120.02960919 203.03785561 118.1771935 200.96410935 116.25 198.875 C105.14044487 186.48949597 95.61320033 172.55434618 86 159 C85.05785645 157.67307129 85.05785645 157.67307129 84.09667969 156.31933594 C52.94035917 112.31314668 26.33814184 65.31562256 5.5 15.5625 C5.21615448 14.88571198 4.93230896 14.20892395 4.63986206 13.5116272 C0 2.40248926 0 2.40248926 0 0 Z " fill="#AF1CAA" transform="translate(46,832)"/>
<path d="M0 0 C396.99 0.495 396.99 0.495 802 1 C801.34 9.25 800.68 17.5 800 26 C799.81380841 31.00782832 799.66268625 35.93699093 799.6875 40.9375 C799.69487183 42.80643921 799.69487183 42.80643921 799.70239258 44.71313477 C800.0001594 68.78949112 804.11723887 92.24109889 810.875 115.3125 C811.18691284 116.38443604 811.18691284 116.38443604 811.50512695 117.47802734 C814.18017139 126.19346348 817.67877719 134.45971278 821 143 C551.39 143 281.78 143 4 143 C0.45119409 114.60955273 -2.35416796 87.51314383 -2.26074219 59.10913086 C-2.24934003 55.6323876 -2.25595165 52.15595327 -2.26788712 48.67922115 C-2.27526409 45.91522575 -2.27274742 43.15129844 -2.26763153 40.38730049 C-2.26573134 38.50754205 -2.27158247 36.62778043 -2.27789307 34.74803162 C-2.21631537 23.00621688 -1.02947715 11.83898727 0 0 Z " fill="#FF661C" transform="translate(2,546)"/>
<path d="M0 0 C22.62408713 8.00132986 45.38134053 15.52776912 69.25854492 18.63354492 C70.21889648 18.76374023 71.17924805 18.89393555 72.16870117 19.02807617 C110.6028268 23.37582794 146.48000746 10.34176587 181.88354492 -2.92895508 C254.45271686 -30.11528151 328.92619409 -38.35418603 401.50854492 -5.99145508 C447.07478292 14.92626089 487.18071435 46.24138566 518.25854492 85.63354492 C515.06991665 89.17117728 511.48026979 91.42740483 507.38354492 93.75854492 C499.0289442 98.64562301 490.19294611 103.82861955 483.23036692 110.60850471 C476.10790527 117.20995618 470.44562967 117.76527987 460.97194481 117.60231018 C459.53453803 117.6065255 458.09713807 117.61425827 456.6597665 117.62516588 C452.71477397 117.64495204 448.77150452 117.61495697 444.82670583 117.57673526 C440.5335672 117.54401588 436.24053662 117.55795771 431.94731581 117.56595612 C424.4248719 117.5735568 416.90297169 117.55143363 409.38064575 117.50981331 C398.19535218 117.44806096 387.01032367 117.43229412 375.8248783 117.42594545 C357.00893458 117.41396356 338.19326094 117.36469392 319.37745285 117.29418945 C300.74685085 117.22450076 282.11632293 117.17137511 263.48561478 117.14038086 C262.32731627 117.1384446 261.16901775 117.13650833 259.97561929 117.13451339 C254.09323169 117.12476634 248.21084366 117.11531531 242.3284554 117.10597825 C200.66100668 117.03930736 158.99372507 116.93548383 117.32641602 116.80981445 C76.84662745 116.68781168 36.36685232 116.58263563 -4.11303711 116.50024414 C-5.36075259 116.49769788 -6.60846807 116.49515161 -7.89399311 116.49252819 C-20.42403863 116.46697618 -32.95408482 116.44176631 -45.48413153 116.41680711 C-71.00939385 116.36595433 -96.53465125 116.31281796 -122.05990601 116.25830078 C-123.23352185 116.25579697 -124.40713769 116.25329316 -125.61631764 116.25071348 C-203.99146022 116.08324508 -282.36647111 115.86254358 -360.74145508 115.63354492 C-359.9439459 114.18588151 -359.14496189 112.7390305 -358.34535217 111.29252625 C-357.90057557 110.48672465 -357.45579897 109.68092306 -356.99754429 108.85070324 C-355.66019835 106.49011639 -354.21714134 104.27802549 -352.61254883 102.09057617 C-352.05865479 101.33397705 -351.50476074 100.57737793 -350.93408203 99.79785156 C-350.06529419 98.63370728 -350.06529419 98.63370728 -349.17895508 97.44604492 C-348.56689209 96.62160889 -347.9548291 95.79717285 -347.32421875 94.94775391 C-341.7795966 87.5527728 -335.90647796 80.51528122 -329.74145508 73.63354492 C-328.87391602 72.65514648 -328.00637695 71.67674805 -327.11254883 70.66870117 C-316.13176805 58.47692519 -304.7013806 46.72543714 -291.74145508 36.63354492 C-290.57902931 35.68449501 -289.41902416 34.73247533 -288.26098633 33.77807617 C-274.62999003 22.59210965 -260.06704414 13.32023164 -244.74145508 4.63354492 C-243.79834473 4.09600586 -243.79834473 4.09600586 -242.83618164 3.54760742 C-218.71743072 -10.09532239 -191.94321691 -19.30474967 -164.74145508 -24.36645508 C-163.87359375 -24.53016602 -163.00573242 -24.69387695 -162.11157227 -24.86254883 C-106.00334586 -34.95410646 -52.43152924 -18.58363512 0 0 Z " fill="#74BC20" transform="translate(409.741455078125,288.366455078125)"/>
<path d="M0 0 C247.83 0 495.66 0 751 0 C749.53947298 3.65131755 748.58652343 5.84937107 746.3828125 8.86328125 C745.60550781 9.93376709 745.60550781 9.93376709 744.8125 11.02587891 C744.255625 11.78046387 743.69875 12.53504883 743.125 13.3125 C742.54492188 14.10575684 741.96484375 14.89901367 741.3671875 15.71630859 C739.58433094 18.14884196 737.79298709 20.57492758 736 23 C735.48018555 23.70721191 734.96037109 24.41442383 734.42480469 25.14306641 C715.41489006 50.9883553 694.6375746 77.26653338 670 98 C669.44666992 98.46712402 668.89333984 98.93424805 668.32324219 99.41552734 C646.94575098 117.37957016 624.11531638 131.4882865 597 139 C596.00734131 139.28593018 596.00734131 139.28593018 594.99462891 139.57763672 C558.32129412 149.73079803 521.6499898 137.04340927 488.57421875 122.1015625 C461.64847716 109.95113116 434.69037543 99.6801394 405 97 C403.86949219 96.89042969 402.73898437 96.78085938 401.57421875 96.66796875 C352.32839865 92.63142612 308.57775331 103.67609838 263.69921875 123.1640625 C237.05891796 134.72858159 237.05891796 134.72858159 225 138 C223.89785156 138.3088916 223.89785156 138.3088916 222.7734375 138.62402344 C200.14714255 144.69285594 172.40736683 144.8561548 150 138 C148.74703125 137.649375 147.4940625 137.29875 146.203125 136.9375 C123.79639034 130.13039074 104.03728291 117.69228834 86 103 C85.47438477 102.57734863 84.94876953 102.15469727 84.40722656 101.71923828 C70.02380038 90.08315934 56.1392761 76.90305594 44.78125 62.27734375 C43.02960919 60.03785561 41.1771935 57.96410935 39.25 55.875 C28.70747982 44.12165572 19.63865101 30.94127122 10.49267578 18.09521484 C9.51740771 16.72626644 8.53933426 15.35931114 7.55810547 13.99462891 C6.26050385 12.18904968 4.97239171 10.37713687 3.6875 8.5625 C2.61048828 7.04849609 2.61048828 7.04849609 1.51171875 5.50390625 C0 3 0 3 0 0 Z " fill="#00A0DD" transform="translate(123,975)"/>
<path d="M0 0 C0.95777344 0.00902344 1.91554688 0.01804688 2.90234375 0.02734375 C3.61519531 0.03894531 4.32804688 0.05054688 5.0625 0.0625 C13.27395254 16.48540509 7.55604146 50.81765113 4.0625 68.0625 C3.76448486 69.54121582 3.76448486 69.54121582 3.46044922 71.04980469 C-6.47134254 118.73728423 -30.10949095 163.94170079 -63.9375 199.0625 C-64.48986328 199.63677734 -65.04222656 200.21105469 -65.61132812 200.80273438 C-72.98546012 208.42404398 -80.47505985 215.64011239 -88.9375 222.0625 C-89.54980469 222.53478027 -90.16210938 223.00706055 -90.79296875 223.49365234 C-128.85744679 252.69543881 -174.62205316 270.77446465 -222.9375 269.0625 C-233.52650228 214.32113997 -212.96549389 157.43139938 -182.828125 112.359375 C-176.73395005 103.45197592 -170.05707336 95.16329661 -162.9375 87.0625 C-162.36 86.37414062 -161.7825 85.68578125 -161.1875 84.9765625 C-152.19711073 74.32295121 -142.0147748 64.50823315 -130.9375 56.0625 C-129.9465332 55.29752197 -129.9465332 55.29752197 -128.93554688 54.51708984 C-117.11995802 45.4299899 -104.91425084 37.39139377 -91.9375 30.0625 C-91.20289551 29.64629395 -90.46829102 29.23008789 -89.71142578 28.80126953 C-63.69279247 14.20169496 -30.32454878 -0.37437715 0 0 Z " fill="#74BD20" transform="translate(685.9375,-0.0625)"/>
</svg>
